<svg width="59" height="59" viewBox="0 0 59 59" fill="none" xmlns="http://www.w3.org/2000/svg">
<path fill-rule="evenodd" clip-rule="evenodd" d="M29.5 59C45.7924 59 59 45.7924 59 29.5C59 13.2076 45.7924 0 29.5 0C13.2076 0 0 13.2076 0 29.5C0 45.7924 13.2076 59 29.5 59ZM41.2094 30.9736C41.617 29.7139 41.8517 28.3554 41.8517 26.8857C41.8517 26.2805 41.7776 25.7001 41.6417 25.1443C41.407 24.2304 40.2336 23.9464 39.5666 24.6133L25.6339 38.5442C25.0657 39.1123 25.1769 40.0757 25.8686 40.4832C26.9432 41.1254 27.9437 41.5824 28.7342 41.8541C29.1541 42.0023 29.8458 42.0023 30.2658 41.8541C33.2425 40.8414 39.2578 37.1487 41.2094 30.9736ZM41.8517 17.7C42.0968 17.7 42.332 17.7966 42.5063 17.9689C42.8645 18.327 42.8645 18.9198 42.5063 19.278L17.8029 43.9783C17.6176 44.1636 17.3829 44.25 17.1483 44.25C16.9136 44.25 16.6789 44.1636 16.4936 43.9783C16.1354 43.6202 16.1354 43.0273 16.4936 42.6692L21.8049 37.3586C20.1003 35.6667 18.5934 33.5301 17.7906 30.9736C17.3829 29.7139 17.1483 28.3554 17.1483 26.8857C17.1483 23.0695 20.2238 19.982 24.0158 19.982C25.0811 19.9833 26.1314 20.2329 27.0834 20.711C28.0354 21.189 28.8628 21.8824 29.5 22.736C30.7475 21.0688 32.7485 19.982 34.9841 19.982C36.1946 19.982 37.331 20.3031 38.3067 20.8588L41.197 17.9689C41.3714 17.7966 41.6066 17.7 41.8517 17.7Z" fill="white"/>
</svg>
