<svg width="59" height="59" viewBox="0 0 59 59" fill="none" xmlns="http://www.w3.org/2000/svg">
<path fill-rule="evenodd" clip-rule="evenodd" d="M29.5 59C45.7924 59 59 45.7924 59 29.5C59 13.2076 45.7924 0 29.5 0C13.2076 0 0 13.2076 0 29.5C0 45.7924 13.2076 59 29.5 59ZM29.5 22.0067C30.8635 20.1865 33.0505 19 35.494 19C39.6385 19 43 22.3708 43 26.5371C43 28.1416 42.7435 29.6247 42.298 31C40.165 37.7416 33.5905 41.773 30.337 42.8787C29.878 43.0404 29.122 43.0404 28.663 42.8787C25.4095 41.773 18.835 37.7416 16.702 31C16.2565 29.6247 16 28.1416 16 26.5371C16 22.3708 19.3615 19 23.506 19C24.6703 19.0015 25.8183 19.274 26.8588 19.7959C27.8992 20.3178 28.8036 21.0748 29.5 22.0067Z" fill="white"/>
</svg>
