<svg width="59" height="59" viewBox="0 0 59 59" fill="none" xmlns="http://www.w3.org/2000/svg">
<path fill-rule="evenodd" clip-rule="evenodd" d="M59 29.5C59 45.7924 45.7924 59 29.5 59C13.2076 59 0 45.7924 0 29.5C0 13.2076 13.2076 0 29.5 0C45.7924 0 59 13.2076 59 29.5ZM36.5062 27.0828L20.7 17.9571C19.3667 17.1873 17.7 18.1495 17.7 19.6891V39.586C17.7 41.1256 19.3667 42.0879 20.7 41.3181L36.5062 32.1924V38.7001C36.5062 39.8046 37.4017 40.7001 38.5062 40.7001H38.9312C40.0358 40.7001 40.9312 39.8046 40.9312 38.7001V20.5751C40.9312 19.4705 40.0358 18.5751 38.9312 18.5751H38.5062C37.4017 18.5751 36.5062 19.4705 36.5062 20.5751V27.0828Z" fill="white"/>
</svg>
