<svg width="91" height="91" viewBox="0 0 91 91" fill="none" xmlns="http://www.w3.org/2000/svg">
<g opacity="0.9">
<path d="M45.585 70.2864C45.1956 70.289 44.8096 70.2145 44.4492 70.0673C44.0887 69.92 43.761 69.703 43.4847 69.4285L20.5003 46.4145C17.6172 43.5013 16 39.5681 16 35.4695C16 31.3708 17.6172 27.4377 20.5003 24.5245C23.4059 21.6271 27.3419 20 31.4453 20C35.5486 20 39.4846 21.6271 42.3902 24.5245L45.585 27.7193L48.7798 24.5245C51.6854 21.6271 55.6213 20 59.7247 20C63.8281 20 67.7641 21.6271 70.6697 24.5245C73.5528 27.4377 75.17 31.3708 75.17 35.4695C75.17 39.5681 73.5528 43.5013 70.6697 46.4145L47.6853 69.4285C47.4088 69.7026 47.0809 69.9194 46.7205 70.0666C46.3602 70.2138 45.9743 70.2885 45.585 70.2864V70.2864Z" fill="white" fill-opacity="0.9"/>
</g>
</svg>
