<svg width="128" height="128" viewBox="0 0 128 128" fill="none" xmlns="http://www.w3.org/2000/svg">
<g opacity="0.7">
<path d="M28.6667 20.2665C28.2667 21.1998 28.1333 41.4665 28.2667 65.3332L28.6667 108.667H32H35.3333V63.9998V19.3332L32.2667 18.9332C30.6667 18.6665 29.0667 19.3332 28.6667 20.2665Z" fill="white"/>
<path d="M92.6667 20.2665C92.2667 21.1998 92.1333 41.4665 92.2667 65.3332L92.6667 108.667H96H99.3333V63.9998V19.3332L96.2667 18.9332C94.6667 18.6665 93.0667 19.3332 92.6667 20.2665Z" fill="white"/>
<path d="M44.6667 33.5997C44.2667 34.533 44.1333 48.933 44.2667 65.333L44.6667 95.333H48H51.3333V63.9997V32.6663L48.2667 32.2663C46.6667 31.9997 45.0667 32.6663 44.6667 33.5997Z" fill="white"/>
<path d="M76.6667 33.5997C76.2667 34.533 76.1333 48.933 76.2667 65.333L76.6667 95.333H80H83.3333V63.9997V32.6663L80.2667 32.2663C78.6667 31.9997 77.0667 32.6663 76.6667 33.5997Z" fill="white"/>
<path d="M12.6667 44.2665C12.2667 45.3332 12.1333 54.7998 12.2667 65.3332L12.6667 84.6665H16H19.3333V63.9998C19.3333 43.5998 19.3333 43.3332 16.2667 42.9332C14.6667 42.6665 13.0667 43.3332 12.6667 44.2665Z" fill="white"/>
<path d="M108.667 44.2665C108.267 45.3332 108.133 54.7998 108.267 65.3332L108.667 84.6665H112H115.333V63.9998C115.333 43.5998 115.333 43.3332 112.267 42.9332C110.667 42.6665 109.067 43.3332 108.667 44.2665Z" fill="white"/>
<path d="M60.5333 56.3998C60.1333 57.4665 60 61.5998 60.2667 65.4665C60.6667 72.1332 60.9333 72.6665 64 72.6665C67.2 72.6665 67.3333 72.3998 67.3333 63.9998C67.3333 55.9998 67.0667 55.3332 64.2667 54.9332C62.6667 54.6665 61.0667 55.3332 60.5333 56.3998Z" fill="white"/>
</g>
</svg>
