<svg width="91" height="91" viewBox="0 0 91 91" fill="none" xmlns="http://www.w3.org/2000/svg">
<g opacity="0.9">
<path d="M45.5 72.1252C45.1106 72.1278 44.7246 72.0533 44.3641 71.9061C44.0036 71.7588 43.6758 71.5418 43.3996 71.2673L20.4133 48.2515C17.53 45.338 15.9127 41.4046 15.9127 37.3056C15.9127 33.2067 17.53 29.2733 20.4133 26.3598C23.3192 23.4622 27.2555 21.835 31.3592 21.835C35.4629 21.835 39.3992 23.4622 42.305 26.3598L45.5 29.5548L48.695 26.3598C51.6009 23.4622 55.5371 21.835 59.6408 21.835C63.7446 21.835 67.6808 23.4622 70.5867 26.3598C73.47 29.2733 75.0873 33.2067 75.0873 37.3056C75.0873 41.4046 73.47 45.338 70.5867 48.2515L47.6004 71.2673C47.3239 71.5414 46.9961 71.7582 46.6356 71.9054C46.2752 72.0526 45.8893 72.1273 45.5 72.1252V72.1252ZM31.3592 27.7502C30.1068 27.7446 28.8658 27.9874 27.708 28.4648C26.5502 28.9421 25.4986 29.6444 24.6142 30.5311C22.8275 32.3271 21.8246 34.7575 21.8246 37.2909C21.8246 39.8242 22.8275 42.2546 24.6142 44.0506L45.5 64.9661L66.3858 44.0506C68.1725 42.2546 69.1754 39.8242 69.1754 37.2909C69.1754 34.7575 68.1725 32.3271 66.3858 30.5311C64.5625 28.8085 62.1492 27.8487 59.6408 27.8487C57.1325 27.8487 54.7192 28.8085 52.8958 30.5311L47.6004 35.8561C47.3254 36.1333 46.9982 36.3534 46.6377 36.5036C46.2772 36.6538 45.8905 36.7311 45.5 36.7311C45.1095 36.7311 44.7228 36.6538 44.3623 36.5036C44.0018 36.3534 43.6746 36.1333 43.3996 35.8561L38.1042 30.5311C37.2197 29.6444 36.1681 28.9421 35.0103 28.4648C33.8525 27.9874 32.6115 27.7446 31.3592 27.7502V27.7502Z" fill="white"/>
</g>
</svg>
