<svg width="202" height="202" viewBox="0 0 202 202" fill="none" xmlns="http://www.w3.org/2000/svg">
<rect width="202" height="202" rx="45" fill="black"/>
<rect x="12" y="12" width="178" height="178" rx="89" fill="url(#paint0_linear_44_95)"/>
<path fill-rule="evenodd" clip-rule="evenodd" d="M16.8486 192.109C6.57602 183.862 0 171.199 0 157V74.3789C12.1677 64.1568 27.8648 58 45 58C83.6599 58 115 89.3401 115 128C115 166.66 83.6599 198 45 198C34.9859 198 25.4629 195.897 16.8486 192.109Z" fill="url(#paint1_radial_44_95)"/>
<path fill-rule="evenodd" clip-rule="evenodd" d="M105.796 0H157C181.853 0 202 20.1472 202 45V98.6419C189.305 116.414 168.506 128 145 128C106.34 128 75 96.6599 75 58C75 33.8664 87.213 12.5853 105.796 0Z" fill="url(#paint2_radial_44_95)"/>
<path fill-rule="evenodd" clip-rule="evenodd" d="M202 83.2575V157C202 181.853 181.853 202 157 202H128.473C106.194 190.288 91 166.918 91 140C91 101.34 122.34 70 161 70C176.313 70 190.477 74.9167 202 83.2575Z" fill="url(#paint3_radial_44_95)"/>
<path d="M68.8235 148.896C72.755 148.896 76.5254 147.334 79.3053 144.554C82.0853 141.775 83.647 138.004 83.647 134.073C83.647 130.141 82.0853 126.371 79.3053 123.591C76.5254 120.811 72.755 119.249 68.8235 119.249C64.8921 119.249 61.1217 120.811 58.3417 123.591C55.5618 126.371 54 130.141 54 134.073C54 138.004 55.5618 141.775 58.3417 144.554C61.1217 147.334 64.8921 148.896 68.8235 148.896V148.896Z" fill="black" stroke="black" stroke-width="1.5" stroke-linecap="round" stroke-linejoin="round"/>
<path d="M136.353 123.671V65.7072C136.353 53.3542 128.609 51.6438 120.769 53.7818L91.1222 61.8587C85.7059 63.3316 82 67.6076 82 73.7841V133.506" stroke="black" stroke-width="5" stroke-linecap="round" stroke-linejoin="round"/>
<path d="M123.176 139.014C127.108 139.014 130.878 137.452 133.658 134.672C136.438 131.892 138 128.122 138 124.19C138 120.259 136.438 116.488 133.658 113.708C130.878 110.929 127.108 109.367 123.176 109.367C119.245 109.367 115.475 110.929 112.695 113.708C109.915 116.488 108.353 120.259 108.353 124.19C108.353 128.122 109.915 131.892 112.695 134.672C115.475 137.452 119.245 139.014 123.176 139.014ZM83.6471 89.6021L138 74.7786Z" fill="black"/>
<path d="M83.6471 89.6021L138 74.7786M123.176 139.014C127.108 139.014 130.878 137.452 133.658 134.672C136.438 131.892 138 128.122 138 124.19C138 120.259 136.438 116.488 133.658 113.708C130.878 110.929 127.108 109.367 123.176 109.367C119.245 109.367 115.475 110.929 112.695 113.708C109.915 116.488 108.353 120.259 108.353 124.19C108.353 128.122 109.915 131.892 112.695 134.672C115.475 137.452 119.245 139.014 123.176 139.014Z" stroke="black" stroke-width="1.5" stroke-linecap="round" stroke-linejoin="round"/>
<path d="M82 90.5L84.5 64.5L133 53L136.5 75L82 90.5Z" fill="black"/>
<defs>
<linearGradient id="paint0_linear_44_95" x1="32.8594" y1="20.3438" x2="132.984" y2="244.93" gradientUnits="userSpaceOnUse">
<stop stop-color="#5DFFFF"/>
<stop offset="0.357292" stop-color="#8DB3E5"/>
<stop offset="1" stop-color="#FE02A7"/>
</linearGradient>
<radialGradient id="paint1_radial_44_95" cx="0" cy="0" r="1" gradientUnits="userSpaceOnUse" gradientTransform="translate(45 128) rotate(90) scale(70 70)">
<stop stop-color="white"/>
<stop offset="1" stop-color="white" stop-opacity="0"/>
</radialGradient>
<radialGradient id="paint2_radial_44_95" cx="0" cy="0" r="1" gradientUnits="userSpaceOnUse" gradientTransform="translate(145 58) rotate(90) scale(70 70)">
<stop stop-color="#36FFFF"/>
<stop offset="1" stop-color="white" stop-opacity="0"/>
</radialGradient>
<radialGradient id="paint3_radial_44_95" cx="0" cy="0" r="1" gradientUnits="userSpaceOnUse" gradientTransform="translate(161 140) rotate(90) scale(70 70)">
<stop stop-color="#FE02A7"/>
<stop offset="1" stop-color="white" stop-opacity="0"/>
</radialGradient>
</defs>
</svg>
