<svg width="59" height="59" viewBox="0 0 59 59" fill="none" xmlns="http://www.w3.org/2000/svg">
<path fill-rule="evenodd" clip-rule="evenodd" d="M59 29.5C59 45.7924 45.7924 59 29.5 59C13.2076 59 0 45.7924 0 29.5C0 13.2076 13.2076 0 29.5 0C45.7924 0 59 13.2076 59 29.5ZM19 18C19 16.8954 19.8954 16 21 16H24C25.1046 16 26 16.8954 26 18V42C26 43.1046 25.1046 44 24 44H21C19.8954 44 19 43.1046 19 42V18ZM34 16C32.8954 16 32 16.8954 32 18V42C32 43.1046 32.8954 44 34 44H37C38.1046 44 39 43.1046 39 42V18C39 16.8954 38.1046 16 37 16H34Z" fill="white"/>
</svg>
