<svg width="128" height="128" viewBox="0 0 128 128" fill="none" xmlns="http://www.w3.org/2000/svg">
<g opacity="0.7">
<path d="M40.9333 19.4665C40.4 19.9998 40 21.8665 40 23.5998V26.6665H64.1333H88.1333L87.7333 22.9332L87.3333 19.3332L64.5333 18.9332C52.1333 18.7998 41.4667 19.0665 40.9333 19.4665Z" fill="white"/>
<path d="M32.9333 31.4665C32.4 31.9998 32 33.8665 32 35.5998V38.6665H64.1333H96.1333L95.7333 34.9332L95.3333 31.3332L64.5333 30.9332C47.6 30.7998 33.4667 31.0665 32.9333 31.4665Z" fill="white"/>
<path d="M25.2 46.1333C22 49.4667 22 49.8667 22 76.1333V102.667L25.7333 106.267L29.3333 110H64H98.6667L102.267 106.267L106 102.667V76.1333C106 49.8667 106 49.4667 102.8 46.1333L99.6 42.6667H64H28.4L25.2 46.1333ZM80 61.2C80 66.1333 79.8667 66.4 74 67.8667L68 69.3333V78.4C68 83.3333 67.2 88.8 66.2667 90.6667C64 95.0667 58.5333 96.9333 54 94.9333C51.0667 93.6 50.5333 92.5333 50.9333 88.9333C51.2 85.4667 52.2667 84.2667 56.2667 82.4C61.7333 79.7333 62.4 78.1333 62.9333 66.6667L63.3333 59.4667L69.3333 57.8667C79.4667 55.2 80 55.3333 80 61.2Z" fill="white"/>
</g>
</svg>
