<svg width="59" height="59" viewBox="0 0 59 59" fill="none" xmlns="http://www.w3.org/2000/svg">
<path fill-rule="evenodd" clip-rule="evenodd" d="M59 29.5C59 45.7924 45.7924 59 29.5 59C13.2076 59 0 45.7924 0 29.5C0 13.2076 13.2076 0 29.5 0C45.7924 0 59 13.2076 59 29.5ZM22.125 27.0827V20.5751C22.125 19.4705 21.2296 18.5751 20.125 18.5751H19.7C18.5955 18.5751 17.7 19.4705 17.7 20.5751V38.7001C17.7 39.8046 18.5955 40.7001 19.7 40.7001H20.125C21.2296 40.7001 22.125 39.8046 22.125 38.7001V32.1924L37.9312 41.3181C39.2645 42.0879 40.9312 41.1256 40.9312 39.586V19.6891C40.9312 18.1495 39.2645 17.1872 37.9312 17.957L22.125 27.0827Z" fill="white"/>
</svg>
