<svg width="128" height="128" viewBox="0 0 128 128" fill="none" xmlns="http://www.w3.org/2000/svg">
<g opacity="0.7">
<path d="M100.933 20.2665C100.667 21.1998 102.267 25.5998 104.667 29.9998C116 50.6665 116.4 74.1332 105.733 95.1998C102.133 102.4 102.533 105.733 106.933 105.066C113.467 104.133 121.333 81.4665 121.333 63.3332C121.333 50.1332 118.8 39.7332 112.4 27.7332C108.667 20.5331 107.067 18.6665 104.667 18.6665C102.933 18.6665 101.333 19.4665 100.933 20.2665Z" fill="white"/>
<path d="M42.8 30.6667C35.4667 36.6667 29.0667 42 28.6667 42.6667C28.1333 43.4667 24.8 44 21.2 44C15.8667 44 13.8667 44.6667 11.3333 47.3333C8.13333 50.4 8 51.4667 8 64.9333C8.13333 74.6667 8.66667 80.1333 9.86667 81.6C12 84.5333 17.6 86.6667 23.2 86.6667C26.6667 86.6667 30.6667 88.9333 41.4667 97.3333C49.0667 103.2 56.5333 108 58.1333 108C59.6 108 62 106.8 63.4667 105.2C65.8667 102.533 66 99.8667 66 63.7333V25.0667L62.8 22.5333C61.0667 21.2 58.9333 20 57.8667 20C56.9333 20 50.1333 24.8 42.8 30.6667Z" fill="white"/>
<path d="M87.0667 31.3332C86.6667 32.5332 88.2667 37.1998 90.5333 41.7332C97.6 55.7332 97.4667 70.2665 90.4 85.0665C87.4667 91.3332 87.8667 94.6665 91.8667 94.6665C96.8 94.6665 104 75.5998 104 62.6665C104 49.0665 95.6 29.3332 89.7333 29.3332C88.8 29.3332 87.6 30.2665 87.0667 31.3332Z" fill="white"/>
<path d="M75.3333 44.1332C74.8 44.9332 75.0667 48.1332 76 51.4666C77.0667 54.9332 77.3333 60.3999 76.8 64.9332C75.2 80.9332 75.0667 80.6665 78.1333 81.0665C82.2667 81.5999 84.6667 74.7999 84.6667 61.9999C84.6667 49.9999 82.4 42.6666 78.5333 42.6666C77.2 42.6666 75.7333 43.3332 75.3333 44.1332Z" fill="white"/>
</g>
</svg>
